<?xml version="1.0" encoding="UTF-8"?>
<svg id="Layer_1" xmlns="http://www.w3.org/2000/svg" viewBox="0 0 150.45 153.41">
  <defs>
    <style>
      .cls-1 {
        fill: none;
      }

      .cls-1, .cls-2, .cls-3 {
        stroke: #fff;
        stroke-miterlimit: 10;
      }

      .cls-2 {
        fill: #c2c1c0;
      }

      .cls-3 {
        fill: #ed1e2b;
      }
    </style>
  </defs>
  <path class="cls-3" d="M79.51,67.37c-1.06,1.08-2.69,1.34-4.03.64-10.29-5.35-52.57-27.32-57.86-29.77-6.03-2.8-7.22-.86-9.49,1.04s-5.23,4.16-6.8,5.73-.85,7.05,1.66,10.05,42.69,46.47,44.43,48.21,3.3,4.17.52,8c-2.78,3.83-18.55,29.39-18.55,29.39l4.44,3.65s23.68-24.87,25.42-26.61,5.39-1.22,8.17.35,56.76,33.71,60.92,34.75c4.16,1.04,19.95-7.97,10.38-19.62s-42.61-46.61-44.52-48.52.04-5.22,2.02-7.48,29.63-47.72,30.68-49.69,3.13-1.41,9.57-.47,10.1,1.1,12.22-2.29c2.47-3.94,1.52-7.3-4.57-11.17-6.09-3.87-12.35-8.54-17.04-11.77-4.7-3.23-9.51.08-9.62,4.08s2.24,10.46,4.3,13.17-.32,4.33-2.97,7.59c-2.31,2.83-31.68,32.97-39.26,40.73Z"/>
  <path class="cls-2" d="M29.38,140.66s-9.72-2.14-7.93.08c1.91,2.37,9.93,10.41,13.87,12.13,1.7.74-1.5-8.55-1.5-8.55l-4.44-3.65Z"/>
  <rect class="cls-1" x="76.85" y="59.6" width="9.21" height="41.66" rx="4.6" ry="4.6" transform="translate(67.46 -33.18) rotate(38.34)"/>
  <rect class="cls-1" x="54.18" y="98.24" width="9.21" height="19.47" rx="4.6" ry="4.6" transform="translate(79.65 -13.18) rotate(38.34)"/>
  <rect class="cls-1" x="83.97" y="61.7" width="9.21" height="19.47" rx="4.6" ry="4.6" transform="translate(63.41 -39.54) rotate(38.34)"/>
</svg>